<svg xmlns="http://www.w3.org/2000/svg" width="28.016" height="23.855" viewBox="0 0 28.016 23.855">
  <g id="linkedin" transform="translate(0 -1.782)">
    <path id="Path_2525" d="M23.15,21.831h.265l-.508-.768h0a.434.434,0,0,0,.477-.439.244.244,0,0,0,0-.029c0-.329-.2-.487-.606-.487h-.658v1.723h.247V21.08h.3Zm-.5-.946h-.287V20.3h.364c.188,0,.4.03.4.277,0,.282-.217.306-.481.306" transform="translate(3.7 3.066)"/>
    <path id="Path_2520" d="M20.184,21.966h-3.51v-5.5c0-1.311-.023-3-1.826-3-1.828,0-2.108,1.428-2.108,2.9v5.591H9.231v-11.3H12.6v1.544h.047a3.694,3.694,0,0,1,3.324-1.826c3.558,0,4.213,2.34,4.213,5.384ZM5.27,9.116A2.037,2.037,0,1,1,7.307,7.079,2.037,2.037,0,0,1,5.27,9.116h0m1.754,12.85H3.511v-11.3H7.025ZM21.933,1.783H1.747A1.729,1.729,0,0,0,0,3.491V23.76a1.729,1.729,0,0,0,1.747,1.709H21.933a1.733,1.733,0,0,0,1.754-1.709V3.49a1.733,1.733,0,0,0-1.754-1.708" transform="translate(0 0)"/>
    <path id="Path_2526" d="M22.832,19.451a1.615,1.615,0,1,0,.032,0h-.032M22.87,22.5A1.448,1.448,0,0,1,21.393,21.1a1.416,1.416,0,1,1,2.832-.047v.023A1.386,1.386,0,0,1,22.87,22.5h-.036" transform="translate(3.552 2.956)"/>
  </g>
</svg>
